<?xml version="1.0" encoding="UTF-8"?>
<!DOCTYPE svg PUBLIC "-//W3C//DTD SVG 1.1//EN" "http://www.w3.org/Graphics/SVG/1.1/DTD/svg11.dtd">
<svg xmlns="http://www.w3.org/2000/svg" version="1.1" width="256px" height="256px" style="shape-rendering:geometricPrecision; text-rendering:geometricPrecision; image-rendering:optimizeQuality; fill-rule:evenodd; clip-rule:evenodd" xmlns:xlink="http://www.w3.org/1999/xlink">
<g><path style="opacity:0.961" fill="#6a8ad9" d="M 30.5,-0.5 C 105.167,-0.5 179.833,-0.5 254.5,-0.5C 254.5,0.166667 254.833,0.5 255.5,0.5C 255.5,75.1667 255.5,149.833 255.5,224.5C 250.938,240.062 240.938,250.396 225.5,255.5C 160.167,255.5 94.8333,255.5 29.5,255.5C 14.5086,250.509 4.50864,240.509 -0.5,225.5C -0.5,160.5 -0.5,95.5 -0.5,30.5C 4.16667,14.5 14.5,4.16667 30.5,-0.5 Z"/></g>
<g><path style="opacity:1" fill="#f2f4fb" d="M 225.5,5.5 C 227.288,5.21478 228.955,5.54811 230.5,6.5C 229.212,12.1597 228.545,17.993 228.5,24C 228.833,29.5 229.167,35 229.5,40.5C 236.671,36.3275 241.671,30.3275 244.5,22.5C 245.5,22.8333 246.167,23.5 246.5,24.5C 243.038,34.2969 236.704,41.6303 227.5,46.5C 226.808,45.9747 226.308,45.3081 226,44.5C 225.5,31.5043 225.333,18.5043 225.5,5.5 Z"/></g>
<g><path style="opacity:1" fill="#010101" d="M 214.5,247.5 C 211.496,242.33 207.329,238.33 202,235.5C 201.033,231.872 200.366,227.872 200,223.5C 199.167,222.667 198.333,221.833 197.5,221C 192.118,219.262 186.785,217.428 181.5,215.5C 181.317,210.968 179.651,207.135 176.5,204C 169.279,202.243 161.946,201.077 154.5,200.5C 154.665,197.482 154.498,194.482 154,191.5C 153.25,190.874 152.416,190.374 151.5,190C 143.174,189.31 134.841,188.81 126.5,188.5C 126.664,185.813 126.497,183.146 126,180.5C 124.301,179.594 122.467,179.261 120.5,179.5C 121.775,168.528 122.775,157.528 123.5,146.5C 123.5,145.833 123.5,145.167 123.5,144.5C 123.198,141.941 123.532,139.607 124.5,137.5C 124.5,140.5 124.5,143.5 124.5,146.5C 125.5,146.5 126.5,146.5 127.5,146.5C 127.5,142.833 127.5,139.167 127.5,135.5C 129.288,135.785 130.955,135.452 132.5,134.5C 129.801,133.271 127.135,133.271 124.5,134.5C 126.275,122.777 128.108,111.11 130,99.5C 133.241,95.5007 135.408,96.1673 136.5,101.5C 136.471,103.029 135.804,104.196 134.5,105C 144.047,107.957 146.381,105.123 141.5,96.5C 143.012,95.7506 144.012,94.584 144.5,93C 143.637,90.7735 142.637,88.6068 141.5,86.5C 141.833,86.1667 142.167,85.8333 142.5,85.5C 145.33,88.3301 147.664,87.9968 149.5,84.5C 148.293,82.5514 146.627,81.0514 144.5,80C 145.938,79.7811 147.271,79.2811 148.5,78.5C 146.822,75.1389 144.155,73.4722 140.5,73.5C 141.345,64.8391 137.345,60.3391 128.5,60C 125.615,56.8266 122.781,56.9933 120,60.5C 119.349,62.235 119.515,63.9017 120.5,65.5C 118.693,66.7991 117.027,66.6324 115.5,65C 113.167,64.3333 110.833,64.3333 108.5,65C 106.933,67.968 105.933,67.468 105.5,63.5C 105.453,61.9996 106.119,60.9996 107.5,60.5C 110.843,61.0258 114.01,62.0258 117,63.5C 116.498,60.8071 116.665,58.1404 117.5,55.5C 114.308,52.4049 110.641,50.0716 106.5,48.5C 105.568,46.234 104.234,44.234 102.5,42.5C 104.935,37.0458 103.268,33.7125 97.5,32.5C 96.7542,31.2638 96.4208,29.9305 96.5,28.5C 92.5586,29.0357 88.5586,29.2023 84.5,29C 83.2283,30.3068 82.2283,31.8068 81.5,33.5C 79.4272,32.5313 77.2605,31.8646 75,31.5C 70.5237,32.4619 66.0237,33.2953 61.5,34C 57.8785,36.6439 53.8785,38.4772 49.5,39.5C 48.2887,40.8745 47.2887,42.3745 46.5,44C 46.7591,45.2613 47.4258,46.2613 48.5,47C 45.8877,46.6406 43.221,46.1406 40.5,45.5C 40.9978,48.4869 41.4978,51.4869 42,54.5C 47.3581,56.2171 52.1914,58.8838 56.5,62.5C 52.4752,66.0101 49.4752,70.1768 47.5,75C 50.0578,79.5657 53.3912,83.5657 57.5,87C 63.4499,88.2289 69.4499,89.5623 75.5,91C 78.9236,95.8135 82.0903,95.6469 85,90.5C 85.3333,87.8333 85.6667,85.1667 86,82.5C 87.9709,99.6588 90.8042,116.659 94.5,133.5C 91.8333,133.5 89.1667,133.5 86.5,133.5C 86.7989,131.396 86.4656,129.396 85.5,127.5C 84.3368,133.137 84.1701,138.804 85,144.5C 87.9277,146.75 91.0944,147.084 94.5,145.5C 95.1667,147.5 95.8333,149.5 96.5,151.5C 97.562,153.234 97.562,154.901 96.5,156.5C 96.8205,161.695 96.4872,166.695 95.5,171.5C 95.3893,170.883 95.056,170.383 94.5,170C 85.8142,169.832 77.1475,169.332 68.5,168.5C 66.5501,161.236 61.8835,158.569 54.5,160.5C 54.0145,156.174 53.6812,152.007 53.5,148C 49.1794,147.501 44.8461,147.334 40.5,147.5C 40.1694,154.863 40.5027,162.197 41.5,169.5C 48.5682,175.884 55.9015,182.051 63.5,188C 68.8089,197.813 76.4756,204.979 86.5,209.5C 91.1524,216.126 95.3191,223.126 99,230.5C 102.333,233.167 105.667,235.833 109,238.5C 110.549,241.312 111.382,244.312 111.5,247.5C 84.1646,247.667 56.8313,247.5 29.5,247C 18.5726,243.073 11.4059,235.573 8,224.5C 7.33333,159.5 7.33333,94.5 8,29.5C 11.927,18.5726 19.427,11.4059 30.5,8C 84.8323,7.50001 139.166,7.33334 193.5,7.5C 193.333,21.1707 193.5,34.8374 194,48.5C 194.786,51.5827 196.619,53.7494 199.5,55C 215.497,55.4999 231.497,55.6666 247.5,55.5C 247.667,111.834 247.5,168.168 247,224.5C 241.979,240.424 231.146,248.09 214.5,247.5 Z"/></g>
<g><path style="opacity:1" fill="#f3f6fc" d="M 213.5,12.5 C 214.873,12.3433 216.207,12.51 217.5,13C 216.71,23.7491 214.543,34.2491 211,44.5C 210.167,45.5 209.333,46.5 208.5,47.5C 207.28,47.1131 206.613,46.2798 206.5,45C 211.548,34.8374 213.882,24.0041 213.5,12.5 Z"/></g>
<g><path style="opacity:1" fill="#f8f8f8" d="M 124.5,134.5 C 124.5,135.5 124.5,136.5 124.5,137.5C 123.532,139.607 123.198,141.941 123.5,144.5C 122.679,141.359 122.179,138.025 122,134.5C 120.373,133.468 119.207,132.134 118.5,130.5C 119.347,120.529 121.014,110.696 123.5,101C 119.387,100.674 115.387,99.1745 111.5,96.5C 108.206,99.7402 104.539,100.24 100.5,98C 99.4464,96.6124 99.2797,95.1124 100,93.5C 104.006,90.3242 107.84,86.9908 111.5,83.5C 111.192,82.6919 110.692,82.0253 110,81.5C 109.252,85.914 106.752,87.414 102.5,86C 100.612,83.8104 98.4449,81.9771 96,80.5C 95.7104,78.9559 95.0437,77.6226 94,76.5C 94.85,94.4557 97.0167,112.289 100.5,130C 100.227,131.533 99.8938,133.033 99.5,134.5C 98.7784,134.918 98.2784,135.584 98,136.5C 97.6174,135.944 97.1174,135.611 96.5,135.5C 95.5,135.167 94.8333,134.5 94.5,133.5C 90.8042,116.659 87.9709,99.6588 86,82.5C 85.6667,85.1667 85.3333,87.8333 85,90.5C 82.0903,95.6469 78.9236,95.8135 75.5,91C 69.4499,89.5623 63.4499,88.2289 57.5,87C 53.3912,83.5657 50.0578,79.5657 47.5,75C 49.4752,70.1768 52.4752,66.0101 56.5,62.5C 52.1914,58.8838 47.3581,56.2171 42,54.5C 41.4978,51.4869 40.9978,48.4869 40.5,45.5C 43.221,46.1406 45.8877,46.6406 48.5,47C 47.4258,46.2613 46.7591,45.2613 46.5,44C 47.2887,42.3745 48.2887,40.8745 49.5,39.5C 53.8785,38.4772 57.8785,36.6439 61.5,34C 66.0237,33.2953 70.5237,32.4619 75,31.5C 77.2605,31.8646 79.4272,32.5313 81.5,33.5C 82.2283,31.8068 83.2283,30.3068 84.5,29C 88.5586,29.2023 92.5586,29.0357 96.5,28.5C 96.4208,29.9305 96.7542,31.2638 97.5,32.5C 103.268,33.7125 104.935,37.0458 102.5,42.5C 104.234,44.234 105.568,46.234 106.5,48.5C 110.641,50.0716 114.308,52.4049 117.5,55.5C 116.665,58.1404 116.498,60.8071 117,63.5C 114.01,62.0258 110.843,61.0258 107.5,60.5C 106.119,60.9996 105.453,61.9996 105.5,63.5C 105.933,67.468 106.933,67.968 108.5,65C 110.833,64.3333 113.167,64.3333 115.5,65C 117.027,66.6324 118.693,66.7991 120.5,65.5C 119.515,63.9017 119.349,62.235 120,60.5C 122.781,56.9933 125.615,56.8266 128.5,60C 137.345,60.3391 141.345,64.8391 140.5,73.5C 144.155,73.4722 146.822,75.1389 148.5,78.5C 147.271,79.2811 145.938,79.7811 144.5,80C 146.627,81.0514 148.293,82.5514 149.5,84.5C 147.664,87.9968 145.33,88.3301 142.5,85.5C 142.167,85.8333 141.833,86.1667 141.5,86.5C 142.637,88.6068 143.637,90.7735 144.5,93C 144.012,94.584 143.012,95.7506 141.5,96.5C 146.381,105.123 144.047,107.957 134.5,105C 135.804,104.196 136.471,103.029 136.5,101.5C 135.408,96.1673 133.241,95.5007 130,99.5C 128.108,111.11 126.275,122.777 124.5,134.5 Z"/></g>
<g><path style="opacity:1" fill="#757575" d="M 107.5,71.5 C 108.892,70.478 110.225,70.8113 111.5,72.5C 110.975,73.1924 110.308,73.6924 109.5,74C 110.576,75.7261 110.743,77.5594 110,79.5C 108.939,76.834 108.106,74.1673 107.5,71.5 Z"/></g>
<g><path style="opacity:1" fill="#070605" d="M 118.5,130.5 C 117.596,131.209 117.263,132.209 117.5,133.5C 115.076,133.192 112.743,133.526 110.5,134.5C 113.086,135.48 115.753,135.813 118.5,135.5C 118.5,136.5 118.5,137.5 118.5,138.5C 116.143,138.337 113.81,138.503 111.5,139C 108.833,141.333 108.833,143.667 111.5,146C 113.473,146.495 115.473,146.662 117.5,146.5C 117.5,146.833 117.5,147.167 117.5,147.5C 116.897,157.884 115.897,168.218 114.5,178.5C 111.167,178.5 107.833,178.5 104.5,178.5C 103.886,168.146 103.22,157.812 102.5,147.5C 102.5,143.833 102.5,140.167 102.5,136.5C 104.042,135.837 105.709,135.17 107.5,134.5C 104.801,133.271 102.135,133.271 99.5,134.5C 99.8938,133.033 100.227,131.533 100.5,130C 97.0167,112.289 94.85,94.4557 94,76.5C 95.0437,77.6226 95.7104,78.9559 96,80.5C 98.4449,81.9771 100.612,83.8104 102.5,86C 106.752,87.414 109.252,85.914 110,81.5C 110.692,82.0253 111.192,82.6919 111.5,83.5C 107.84,86.9908 104.006,90.3242 100,93.5C 99.2797,95.1124 99.4464,96.6124 100.5,98C 104.539,100.24 108.206,99.7402 111.5,96.5C 115.387,99.1745 119.387,100.674 123.5,101C 121.014,110.696 119.347,120.529 118.5,130.5 Z"/></g>
<g><path style="opacity:1" fill="#da842f" d="M 78.5,128.5 C 80.4646,128.948 80.7979,129.948 79.5,131.5C 78.6143,130.675 78.281,129.675 78.5,128.5 Z"/></g>
<g><path style="opacity:1" fill="#7500a9" d="M 223.5,128.5 C 224.5,128.5 225.5,128.5 226.5,128.5C 226.5,129.5 226.5,130.5 226.5,131.5C 225.5,131.5 224.5,131.5 223.5,131.5C 223.5,130.5 223.5,129.5 223.5,128.5 Z"/></g>
<g><path style="opacity:1" fill="#049826" d="M 157.5,130.5 C 160.962,129.518 164.629,129.185 168.5,129.5C 168.5,130.5 168.5,131.5 168.5,132.5C 165.5,132.5 162.5,132.5 159.5,132.5C 160.609,131.71 161.942,131.21 163.5,131C 161.527,130.505 159.527,130.338 157.5,130.5 Z"/></g>
<g><path style="opacity:1" fill="#c91300" d="M 21.5,145.5 C 19.8651,141.427 18.8651,137.094 18.5,132.5C 17.1667,132.5 15.8333,132.5 14.5,132.5C 14.5,131.5 14.5,130.5 14.5,129.5C 18.5,129.5 22.5,129.5 26.5,129.5C 26.5,130.5 26.5,131.5 26.5,132.5C 24.8333,132.5 23.1667,132.5 21.5,132.5C 21.5,136.833 21.5,141.167 21.5,145.5 Z"/></g>
<g><path style="opacity:1" fill="#2700d3" d="M 210.5,135.5 C 209.5,135.5 208.5,135.5 207.5,135.5C 207.194,138.385 207.527,141.052 208.5,143.5C 208.918,144.222 209.584,144.722 210.5,145C 209.207,145.49 207.873,145.657 206.5,145.5C 206.127,141.653 205.127,137.987 203.5,134.5C 204.646,133.281 205.646,131.948 206.5,130.5C 207.386,131.325 207.719,132.325 207.5,133.5C 208.978,133.238 210.311,133.571 211.5,134.5C 211.376,135.107 211.043,135.44 210.5,135.5 Z"/></g>
<g><path style="opacity:1" fill="#6db508" d="M 124.5,137.5 C 124.5,136.5 124.5,135.5 124.5,134.5C 127.135,133.271 129.801,133.271 132.5,134.5C 130.955,135.452 129.288,135.785 127.5,135.5C 127.5,139.167 127.5,142.833 127.5,146.5C 126.5,146.5 125.5,146.5 124.5,146.5C 124.5,143.5 124.5,140.5 124.5,137.5 Z"/></g>
<g><path style="opacity:1" fill="#790b01" d="M 18.5,132.5 C 18.8651,137.094 19.8651,141.427 21.5,145.5C 20.791,146.404 19.791,146.737 18.5,146.5C 18.5,141.833 18.5,137.167 18.5,132.5 Z"/></g>
<g><path style="opacity:1" fill="#0307d1" d="M 195.5,143.5 C 197.292,144.309 199.292,144.809 201.5,145C 198.854,145.497 196.187,145.664 193.5,145.5C 192.883,145.389 192.383,145.056 192,144.5C 189.523,134.809 193.023,131.476 202.5,134.5C 199.634,135.208 196.8,135.875 194,136.5C 193.333,138.5 193.333,140.5 194,142.5C 194.383,143.056 194.883,143.389 195.5,143.5 Z"/></g>
<g><path style="opacity:1" fill="#b700d0" d="M 232.5,143.5 C 234.631,144.314 236.964,144.814 239.5,145C 236.854,145.497 234.187,145.664 231.5,145.5C 227.567,141.71 227.567,137.876 231.5,134C 241.822,133.777 241.989,134.61 232,136.5C 231.297,138.929 231.463,141.262 232.5,143.5 Z"/></g>
<g><path style="opacity:1" fill="#d5812e" d="M 78.5,133.5 C 79.8001,135.223 80.4668,137.39 80.5,140C 80.1667,142.167 79.8333,144.333 79.5,146.5C 78.5078,142.217 78.1744,137.884 78.5,133.5 Z"/></g>
<g><path style="opacity:1" fill="#08456a" d="M 179.5,133.5 C 179.5,134.167 179.5,134.833 179.5,135.5C 179.5,136.5 179.5,137.5 179.5,138.5C 181.5,138.5 183.5,138.5 185.5,138.5C 183.708,139.309 181.708,139.809 179.5,140C 181.81,140.497 184.143,140.663 186.5,140.5C 184.302,141.165 181.969,141.832 179.5,142.5C 179.624,143.107 179.957,143.44 180.5,143.5C 181.167,144.5 181.833,145.5 182.5,146.5C 179.762,147.035 177.928,146.035 177,143.5C 176.333,140.833 176.333,138.167 177,135.5C 177.708,134.619 178.542,133.953 179.5,133.5 Z"/></g>
<g><path style="opacity:1" fill="#7100a5" d="M 223.5,133.5 C 224.5,133.5 225.5,133.5 226.5,133.5C 226.5,137.833 226.5,142.167 226.5,146.5C 225.5,146.5 224.5,146.5 223.5,146.5C 223.5,142.167 223.5,137.833 223.5,133.5 Z"/></g>
<g><path style="opacity:1" fill="#03040e" d="M 179.5,135.5 C 181.527,135.338 183.527,135.505 185.5,136C 186.774,136.977 186.774,137.811 185.5,138.5C 183.5,138.5 181.5,138.5 179.5,138.5C 179.5,137.5 179.5,136.5 179.5,135.5 Z"/></g>
<g><path style="opacity:1" fill="#0e0140" d="M 210.5,135.5 C 208.798,137.8 208.132,140.467 208.5,143.5C 207.527,141.052 207.194,138.385 207.5,135.5C 208.5,135.5 209.5,135.5 210.5,135.5 Z"/></g>
<g><path style="opacity:1" fill="#056320" d="M 167.5,136.5 C 168.404,137.209 168.737,138.209 168.5,139.5C 165.5,139.5 162.5,139.5 159.5,139.5C 162.477,139.098 165.143,138.098 167.5,136.5 Z"/></g>
<g><path style="opacity:1" fill="#027959" d="M 171.5,127.5 C 172.818,130.258 173.485,133.424 173.5,137C 173.167,140.167 172.833,143.333 172.5,146.5C 171.504,140.202 171.17,133.868 171.5,127.5 Z"/></g>
<g><path style="opacity:1" fill="#d2290d" d="M 28.5,127.5 C 30.3079,128.918 30.9746,130.918 30.5,133.5C 37.4761,131.557 40.8094,134.057 40.5,141C 40.1667,142.833 39.8333,144.667 39.5,146.5C 38.6786,143.553 38.1786,140.553 38,137.5C 35.8646,135.722 33.3646,135.055 30.5,135.5C 30.8226,139.226 30.4892,142.893 29.5,146.5C 28.5037,140.202 28.1703,133.868 28.5,127.5 Z"/></g>
<g><path style="opacity:1" fill="#82817f" d="M 118.5,130.5 C 119.207,132.134 120.373,133.468 122,134.5C 122.179,138.025 122.679,141.359 123.5,144.5C 123.5,145.167 123.5,145.833 123.5,146.5C 121.565,147.15 119.565,147.483 117.5,147.5C 117.5,147.167 117.5,146.833 117.5,146.5C 118.822,146.67 119.989,146.337 121,145.5C 121.667,142.167 121.667,138.833 121,135.5C 120.184,134.177 119.017,133.511 117.5,133.5C 117.263,132.209 117.596,131.209 118.5,130.5 Z"/></g>
<g><path style="opacity:1" fill="#0736ad" d="M 179.5,133.5 C 182.187,133.336 184.854,133.503 187.5,134C 189.02,136.552 188.687,138.718 186.5,140.5C 184.143,140.663 181.81,140.497 179.5,140C 181.708,139.809 183.708,139.309 185.5,138.5C 186.774,137.811 186.774,136.977 185.5,136C 183.527,135.505 181.527,135.338 179.5,135.5C 179.5,134.833 179.5,134.167 179.5,133.5 Z"/></g>
<g><path style="opacity:1" fill="#c5c434" d="M 117.5,133.5 C 119.017,133.511 120.184,134.177 121,135.5C 121.667,138.833 121.667,142.167 121,145.5C 119.989,146.337 118.822,146.67 117.5,146.5C 115.473,146.662 113.473,146.495 111.5,146C 108.833,143.667 108.833,141.333 111.5,139C 113.81,138.503 116.143,138.337 118.5,138.5C 118.5,137.5 118.5,136.5 118.5,135.5C 115.753,135.813 113.086,135.48 110.5,134.5C 112.743,133.526 115.076,133.192 117.5,133.5 Z"/></g>
<g><path style="opacity:1" fill="#5800d2" d="M 214.5,133.5 C 222.54,133.52 223.04,134.52 216,136.5C 215.824,139.882 215.324,143.215 214.5,146.5C 213.23,142.119 213.23,137.785 214.5,133.5 Z"/></g>
<g><path style="opacity:1" fill="#cd411d" d="M 47.5,143.5 C 49.631,144.314 51.9644,144.814 54.5,145C 51.5184,145.498 48.5184,145.665 45.5,145.5C 44.8826,145.389 44.3826,145.056 44,144.5C 41.6575,134.508 45.3242,131.175 55,134.5C 55.6667,136.167 55.6667,137.833 55,139.5C 52.4259,141.002 49.5926,142.002 46.5,142.5C 46.6236,143.107 46.9569,143.44 47.5,143.5 Z"/></g>
<g><path style="opacity:1" fill="#170702" d="M 46.5,135.5 C 48.5273,135.338 50.5273,135.505 52.5,136C 52.9574,136.414 53.2907,136.914 53.5,137.5C 51.2573,138.474 48.924,138.808 46.5,138.5C 46.5,137.5 46.5,136.5 46.5,135.5 Z"/></g>
<g><path style="opacity:1" fill="#13100e" d="M 112.5,140.5 C 114.5,140.5 116.5,140.5 118.5,140.5C 118.5,141.5 118.5,142.5 118.5,143.5C 116.473,143.662 114.473,143.495 112.5,143C 111.402,142.23 111.402,141.397 112.5,140.5 Z"/></g>
<g><path style="opacity:1" fill="#ebc850" d="M 102.5,136.5 C 101.834,139.689 101.167,143.023 100.5,146.5C 99.5091,142.555 99.1758,138.555 99.5,134.5C 102.135,133.271 104.801,133.271 107.5,134.5C 105.709,135.17 104.042,135.837 102.5,136.5 Z"/></g>
<g><path style="opacity:1" fill="#c3632a" d="M 64.5,129.5 C 65.5,129.5 66.5,129.5 67.5,129.5C 67.3343,133.846 67.501,138.179 68,142.5C 70.7191,143.444 73.5525,143.777 76.5,143.5C 76.5,144.5 76.5,145.5 76.5,146.5C 73.4816,146.665 70.4816,146.498 67.5,146C 66.6667,145.167 65.8333,144.333 65,143.5C 64.5008,138.845 64.3342,134.179 64.5,129.5 Z"/></g>
<g><path style="opacity:1" fill="#d49934" d="M 94.5,133.5 C 94.8333,134.5 95.5,135.167 96.5,135.5C 96.9661,139.162 96.2994,142.495 94.5,145.5C 91.0944,147.084 87.9277,146.75 85,144.5C 84.1701,138.804 84.3368,133.137 85.5,127.5C 86.4656,129.396 86.7989,131.396 86.5,133.5C 89.1667,133.5 91.8333,133.5 94.5,133.5 Z"/></g>
<g><path style="opacity:1" fill="#110a02" d="M 86.5,135.5 C 92.6616,134.254 95.1616,136.588 94,142.5C 87.3203,144.993 84.8203,142.659 86.5,135.5 Z"/></g>
<g><path style="opacity:1" fill="#9e9b98" d="M 99.5,134.5 C 99.1758,138.555 99.5091,142.555 100.5,146.5C 101.167,143.023 101.834,139.689 102.5,136.5C 102.5,140.167 102.5,143.833 102.5,147.5C 99.7615,148.035 97.9282,147.035 97,144.5C 96.5034,146.81 96.3367,149.143 96.5,151.5C 95.8333,149.5 95.1667,147.5 94.5,145.5C 96.2994,142.495 96.9661,139.162 96.5,135.5C 97.1174,135.611 97.6174,135.944 98,136.5C 98.2784,135.584 98.7784,134.918 99.5,134.5 Z"/></g>
<g><path style="opacity:1" fill="#2dc800" d="M 134.5,134.5 C 135.209,133.596 136.209,133.263 137.5,133.5C 138.36,136.911 139.526,140.244 141,143.5C 142.474,140.244 143.64,136.911 144.5,133.5C 145.552,133.351 146.552,133.517 147.5,134C 145.308,140.088 142.641,145.921 139.5,151.5C 138.777,149.836 139.11,148.169 140.5,146.5C 137.608,142.873 135.608,138.873 134.5,134.5 Z"/></g>
<g><path style="opacity:1" fill="#fbfbfb" d="M 102.5,147.5 C 103.22,157.812 103.886,168.146 104.5,178.5C 107.833,178.5 111.167,178.5 114.5,178.5C 115.897,168.218 116.897,157.884 117.5,147.5C 119.565,147.483 121.565,147.15 123.5,146.5C 122.775,157.528 121.775,168.528 120.5,179.5C 122.467,179.261 124.301,179.594 126,180.5C 126.497,183.146 126.664,185.813 126.5,188.5C 134.841,188.81 143.174,189.31 151.5,190C 152.416,190.374 153.25,190.874 154,191.5C 154.498,194.482 154.665,197.482 154.5,200.5C 161.946,201.077 169.279,202.243 176.5,204C 179.651,207.135 181.317,210.968 181.5,215.5C 186.785,217.428 192.118,219.262 197.5,221C 198.333,221.833 199.167,222.667 200,223.5C 200.366,227.872 201.033,231.872 202,235.5C 207.329,238.33 211.496,242.33 214.5,247.5C 180.264,248.829 145.931,248.829 111.5,247.5C 111.382,244.312 110.549,241.312 109,238.5C 105.667,235.833 102.333,233.167 99,230.5C 95.3191,223.126 91.1524,216.126 86.5,209.5C 76.4756,204.979 68.8089,197.813 63.5,188C 55.9015,182.051 48.5682,175.884 41.5,169.5C 40.5027,162.197 40.1694,154.863 40.5,147.5C 44.8461,147.334 49.1794,147.501 53.5,148C 53.6812,152.007 54.0145,156.174 54.5,160.5C 61.8835,158.569 66.5501,161.236 68.5,168.5C 77.1475,169.332 85.8142,169.832 94.5,170C 95.056,170.383 95.3893,170.883 95.5,171.5C 95.1253,174.397 95.6253,177.063 97,179.5C 97.8223,171.655 97.6557,163.989 96.5,156.5C 97.562,154.901 97.562,153.234 96.5,151.5C 96.3367,149.143 96.5034,146.81 97,144.5C 97.9282,147.035 99.7615,148.035 102.5,147.5 Z"/></g>
<g><path style="opacity:1" fill="#03bd1d" d="M 157.5,130.5 C 159.527,130.338 161.527,130.505 163.5,131C 161.942,131.21 160.609,131.71 159.5,132.5C 158.566,133.568 158.232,134.901 158.5,136.5C 161.5,136.5 164.5,136.5 167.5,136.5C 165.143,138.098 162.477,139.098 159.5,139.5C 158.566,140.568 158.232,141.901 158.5,143.5C 161.5,143.5 164.5,143.5 167.5,143.5C 164.663,145.402 161.329,146.069 157.5,145.5C 154.86,143.121 154.86,140.621 157.5,138C 154.86,135.379 154.86,132.879 157.5,130.5 Z"/></g>
<g><path style="opacity:1" fill="#8e3117" d="M 47.5,143.5 C 50.1667,143.5 52.8333,143.5 55.5,143.5C 55.5,144.5 55.5,145.5 55.5,146.5C 51.9581,146.813 48.6248,146.479 45.5,145.5C 48.5184,145.665 51.5184,145.498 54.5,145C 51.9644,144.814 49.631,144.314 47.5,143.5 Z"/></g>
<g><path style="opacity:1" fill="#026a20" d="M 167.5,143.5 C 168.404,144.209 168.737,145.209 168.5,146.5C 164.629,146.815 160.962,146.482 157.5,145.5C 161.329,146.069 164.663,145.402 167.5,143.5 Z"/></g>
<g><path style="opacity:1" fill="#062980" d="M 180.5,143.5 C 183.167,143.5 185.833,143.5 188.5,143.5C 188.5,144.5 188.5,145.5 188.5,146.5C 186.5,146.5 184.5,146.5 182.5,146.5C 181.833,145.5 181.167,144.5 180.5,143.5 Z"/></g>
<g><path style="opacity:1" fill="#080189" d="M 195.5,143.5 C 197.833,143.5 200.167,143.5 202.5,143.5C 202.5,144.5 202.5,145.5 202.5,146.5C 199.287,146.81 196.287,146.477 193.5,145.5C 196.187,145.664 198.854,145.497 201.5,145C 199.292,144.809 197.292,144.309 195.5,143.5 Z"/></g>
<g><path style="opacity:1" fill="#240085" d="M 208.5,143.5 C 209.5,143.5 210.5,143.5 211.5,143.5C 211.5,144.5 211.5,145.5 211.5,146.5C 209.585,146.784 207.919,146.451 206.5,145.5C 207.873,145.657 209.207,145.49 210.5,145C 209.584,144.722 208.918,144.222 208.5,143.5 Z"/></g>
<g><path style="opacity:1" fill="#860088" d="M 232.5,143.5 C 235.167,143.5 237.833,143.5 240.5,143.5C 240.5,144.5 240.5,145.5 240.5,146.5C 237.287,146.81 234.287,146.477 231.5,145.5C 234.187,145.664 236.854,145.497 239.5,145C 236.964,144.814 234.631,144.314 232.5,143.5 Z"/></g>
<g><path style="opacity:1" fill="#969696" d="M 96.5,156.5 C 97.6557,163.989 97.8223,171.655 97,179.5C 95.6253,177.063 95.1253,174.397 95.5,171.5C 96.4872,166.695 96.8205,161.695 96.5,156.5 Z"/></g>
</svg>
